<svg width="58" height="58" viewBox="0 0 58 58" fill="none" xmlns="http://www.w3.org/2000/svg">
<rect width="58" height="58" rx="23.2" fill="url(#paint0_linear_76_52)"/>
<path d="M24.1528 29.6922C24.535 29.6922 24.8449 29.3823 24.8449 28.9999C24.8449 28.6176 24.535 28.3076 24.1528 28.3076C23.7706 28.3076 23.4607 28.6176 23.4607 28.9999C23.4607 29.3823 23.7706 29.6922 24.1528 29.6922Z" stroke="#496785" stroke-width="2" stroke-linecap="round" stroke-linejoin="round"/>
<path d="M28.6513 29.6922C29.0336 29.6922 29.3434 29.3823 29.3434 28.9999C29.3434 28.6176 29.0336 28.3076 28.6513 28.3076C28.2691 28.3076 27.9592 28.6176 27.9592 28.9999C27.9592 29.3823 28.2691 29.6922 28.6513 29.6922Z" stroke="#496785" stroke-width="2" stroke-linecap="round" stroke-linejoin="round"/>
<path d="M33.1501 29.6922C33.5323 29.6922 33.8422 29.3823 33.8422 28.9999C33.8422 28.6176 33.5323 28.3076 33.1501 28.3076C32.7679 28.3076 32.458 28.6176 32.458 28.9999C32.458 29.3823 32.7679 29.6922 33.1501 29.6922Z" stroke="#496785" stroke-width="2" stroke-linecap="round" stroke-linejoin="round"/>
<path d="M28.9973 20C27.3699 20.0005 25.773 20.4426 24.3768 21.2791C22.9806 22.1157 21.8374 23.3154 21.0689 24.7504C20.3005 26.1855 19.9355 27.8022 20.013 29.4283C20.0905 31.0545 20.6074 32.6291 21.5088 33.9846L20 38L25.0524 37.0862C26.2689 37.6808 27.604 37.9932 28.9581 37.9999C30.3122 38.0066 31.6503 37.7075 32.8727 37.1249C34.0951 36.5423 35.1703 35.6912 36.0181 34.6351C36.8659 33.579 37.4645 32.345 37.7692 31.0253C38.0739 29.7056 38.0769 28.334 37.778 27.013C37.479 25.6919 36.8858 24.4554 36.0426 23.3956C35.1994 22.3358 34.128 21.48 32.9081 20.8921C31.6882 20.3041 30.3514 19.9992 28.9973 20V20Z" stroke="#496785" stroke-width="2" stroke-linecap="round" stroke-linejoin="round"/>
<defs>
<linearGradient id="paint0_linear_76_52" x1="0.00828329" y1="58.0083" x2="58.0083" y2="0.00828329" gradientUnits="userSpaceOnUse">
<stop stop-color="#8EACCD"/>
<stop offset="1" stop-color="#D2E0FB"/>
</linearGradient>
</defs>
</svg>
